<svg id="Layer_1" data-name="Layer 1" xmlns="http://www.w3.org/2000/svg" viewBox="0 0 188.74677 172.5"><defs><style>.cls-1{fill:#33393e;}.cls-2{fill:#b6d3d8;}.cls-3{fill:#959696;}.cls-4{fill:#58595b;}</style></defs><title>WTT-Logo-dusk</title><path class="cls-1" d="M31.89442,168.01367a11.37964,11.37964,0,0,1-6.17676-2.08008c-2.34473-1.5293-5.958-6.22559-16.43066-30.02734-.42187-.96094-.75586-1.72266-.85156-1.917l-.07324-.14746-.09277-.24609c-1.59961-5.11426-1.46777-8.93262.43457-13.248,2.72754-6.18848,8.50977-10.2793,13.81738-13.46289,1.33691-.89844,5.33984-2.9043,7.97949-4.19824a67.53154,67.53154,0,0,1,.54395-64.438,4.39835,4.39835,0,0,1,1.26563-3.4624c.68164-.68164,1.42383-1.38867,2.207-2.10205a68.40975,68.40975,0,0,1,7.80566-9.34229,67.28873,67.28873,0,0,1,29.88281-17.377A23.40694,23.40694,0,0,1,80.8993,3.92139C85.47547,3.58691,91.53114,3.542,96.85145,3.542c1.61133,0,3.22949.00488,4.81055.01025l.68652.002c1.74316.00586,3.38965.01123,4.98047.01123,2.85938,0,4.96387-.019,6.62012-.06006.30469-.00781.58691-.01123.8623-.01123l.38281.00293c1.835.02441,7.36914.09863,10.2002,4.77295.05957.09619.125.20752.18945.32324a14.59276,14.59276,0,0,1,1.48242,5.34326q.05272.42773.10156.86182a67.10292,67.10292,0,0,1,30.1787,56.1875,67.78034,67.78034,0,0,1-5.98437,27.78857c26.34082,9.24023,29.63574,18.46875,29.76563,18.86719,1.06641,3.25293-.61426,11.33984-1.23828,13.03613-.37012,1.00684-.73828,2.03516-1.09277,3.0293-3.085,8.63965-5.999,16.7998-13.86426,21.40039a10.29448,10.29448,0,0,1-5.20215,1.15039,28.05243,28.05243,0,0,1-6.02539-.7666c-2.7207-.709-5.3916-1.5957-7.97461-2.45312-2.4834-.8252-5.03223-1.67285-7.46484-2.31055-.55566-.12109-1.42871-.40137-3.26953-.998-1.14746-.37109-3.27246-1.05859-4.9668-1.54687A5.63237,5.63237,0,0,1,128.455,151.131a7.01821,7.01821,0,0,1-5.11914,1.79492c-.10059,0-.20215-.001-.30566-.00293a5.31933,5.31933,0,0,1-.623.03613c-2.4707,0-6.15332-1.584-8.56738-3.68457a11.28574,11.28574,0,0,1-4.083-8.0625c-.47559.02344-.95508.05859-1.374.08887l-.92676.06445c-3.2666.20508-6.10254.45117-9.10352.71094l-.42871.03711c-1.41992.123-2.88184.249-4.44434.374a109.79992,109.79992,0,0,0-16.24609,2.46289,228.66585,228.66585,0,0,0-23.707,7.09473c-3.93262,1.40332-7.66895,2.73828-10.80469,4.82422.51172,2.30859-.25391,4.48633-2.28906,6.49414-2.22852,2.38672-4.85059,4.64941-8.53711,4.65039Z"/><path class="cls-2" d="M114.81147,5.49435c.12173,0,.24646.00108.37219.00275,2.80331.03772,6.5238.547,8.50015,3.80916.052.08556.10352.17143.15286.26083a12.70428,12.70428,0,0,1,1.24542,4.61635c.04913.394.09406.79388.13931,1.198.02139.19135.0437.3849.06589.57813A65.42541,65.42541,0,0,1,148.59866,99.9417c27.28244,9.13881,30.59326,18.21415,30.6286,18.32237.83777,2.556-.5881,10.01942-1.21484,11.72234-.37332,1.0144-.74265,2.04866-1.09982,3.04872-2.95908,8.28622-5.75412,16.11284-12.98975,20.34569a8.50569,8.50569,0,0,1-4.1926.87743,25.861,25.861,0,0,1-5.56921-.71451l-.02759-.00684c-2.58664-.67462-5.232-1.55347-7.79062-2.40341-2.51312-.83469-5.11148-1.69788-7.61646-2.35287-.44989-.09247-1.39386-.39581-3.114-.953a76.33815,76.33815,0,0,0-7.43256-2.15639l.0022.06509a4.972,4.972,0,0,1-1.12939,3.96863,5.06508,5.06508,0,0,1-3.71555,1.22107q-.20612,0-.42108-.00822a2.89323,2.89323,0,0,1-.50986.041,13.18336,13.18336,0,0,1-7.2525-3.19344A9.22435,9.22435,0,0,1,111.848,139.254a8.23908,8.23908,0,0,0-1.15948-.06731c-.81326,0-1.72821.06656-2.45612.11961-.30951.02275-.6124.04459-.90292.06291-3.28357.20619-6.13321.453-9.14987.71437-1.55084.13448-3.14407.27245-4.86026.4104a111.79423,111.79423,0,0,0-16.53912,2.50829,230.71428,230.71428,0,0,0-23.92688,7.159c-4.56775,1.63075-8.89749,3.17673-12.499,5.94305.5455,1.17644,1.25171,3.29153-1.32611,5.83559-1.92831,2.06322-4.158,4.07326-7.13406,4.07368a9.32581,9.32581,0,0,1-5.0834-1.75438c-2.77765-1.81155-7.61758-10.80447-15.693-29.15866-.44638-1.0144-.79892-1.81578-.89319-2.0045l-.04086-.08125-.02692-.08675c-1.43759-4.59447-1.33185-7.8955.377-11.77338,2.50674-5.68766,8.00653-9.55272,13.06415-12.5831,1.173-.80765,5.56647-3.02728,9.67432-5.00978a65.51306,65.51306,0,0,1-.15884-64.91056c-.02029-.14473-.03989-.29076-.06052-.43478a2.373,2.373,0,0,1,.67114-2.01506q1.104-1.1041,2.308-2.19057a66.10969,66.10969,0,0,1,7.70547-9.2551A64.994,64.994,0,0,1,72.9087,7.84651a21.23071,21.23071,0,0,1,8.1348-1.93076c4.51327-.32931,10.5235-.37368,15.8075-.37368,1.60983,0,3.22546.00471,4.804.00993l.68912.00223c1.74411.00581,3.39163.01128,4.98465.01128,2.86932,0,4.9884-.01929,6.67014-.06071.28766-.007.55325-.01044.81207-.01044h.00046m0-4c-.29034,0-.58774.00378-.90985.01163-1.6488.04062-3.737.05952-6.57281.05952-1.58878,0-3.2319-.00546-4.97131-.01125l-.32446-.00107-.36548-.00116c-1.58221-.00525-3.20227-.01-4.81653-.01-5.35623,0-11.45755.04565-16.0986.38428a25.87063,25.87063,0,0,0-9.24207,2.155,69.30533,69.30533,0,0,0-30.6012,17.846,70.347,70.347,0,0,0-7.90552,9.43141c-.74567.68338-1.45337,1.35957-2.10806,2.0143a6.40747,6.40747,0,0,0-1.86447,4.38438,69.54561,69.54561,0,0,0-1.239,64.035c-2.53448,1.263-5.17322,2.63-6.33966,3.40172-5.56693,3.34274-11.633,7.66343-14.57886,14.3473-2.08911,4.74069-2.24884,9.10136-.53427,14.58106l.024.07722.09821.31659.149.29613.04086.08125c.07141.15015.45685,1.02606.79691,1.79884C17.579,159.71811,21.53069,165.591,24.62569,167.60959a13.329,13.329,0,0,0,7.26855,2.404c5.01239-.00073,8.367-3.53539,10.00626-5.28877a9.30422,9.30422,0,0,0,2.962-6.83447,55.485,55.485,0,0,1,9.33585-3.962,226.5459,226.5459,0,0,1,23.489-7.03033,107.84635,107.84635,0,0,1,15.95291-2.417c1.72479-.13866,3.3262-.27731,4.885-.41248,2.99026-.25909,5.81491-.50385,9.055-.70731q.21826-.01373.44409-.02966a13.51275,13.51275,0,0,0,4.503,7.45064c2.77924,2.42,6.93405,4.17653,9.879,4.17653.24344,0,.48206-.01154.71378-.03442q.10945.00165.21716.00163a8.93484,8.93484,0,0,0,6.51971-2.36856,7.42527,7.42527,0,0,0,1.4104-1.915c1.25241.38774,2.47641.78433,3.11227.99036,1.855.60088,2.7645.89256,3.41415,1.03841,2.3537.61934,4.85794,1.45106,7.28055,2.25568,2.63016.87372,5.33759,1.77309,8.04984,2.48047l.02277.00594.05032.0125.02573.00638.02582.00606a29.476,29.476,0,0,0,6.48166.81995,12.22617,12.22617,0,0,0,6.21231-1.42477c8.49316-4.96851,11.66733-13.85713,14.737-22.45309.35852-1.00378.72061-2.01775,1.08667-3.01237.64716-1.75847,2.56821-10.36468,1.26205-14.34975-.18311-.56063-1.35767-3.58284-6.38516-7.64132-5.25668-4.24348-12.84567-8.19321-22.59793-11.76567a69.84409,69.84409,0,0,0,5.30164-26.6252,69.08626,69.08626,0,0,0-30.30026-57.33553A16.326,16.326,0,0,0,127.33747,7.632c-.07556-.13684-.15454-.27-.23486-.40225-2.25787-3.72684-6.25067-5.65674-11.86514-5.73227-.14462-.00191-.287-.00313-.426-.00313Z"/><path class="cls-3" d="M140.91309,52.39392l.00133.00006s.57108-5.29679-1.5845-5.32411c-8.09128-2.39062-24.67129-.91911-32.82817-.38619-1.38272.08885-3.9357,1.13941-4.63464-.77239,2.44484-1.12773,6.2334-.74147,10.04166-1.1587,5.967-.65664,13.88432.13127,19.31064-1.15858-2.5029-1.487-4.68478-3.29434-7.33806-4.63458-2.70732,1.67233-8.748.00773-11.97257,1.15864,1.61044.95,4.38324,1.33251,4.63452,3.08974-2.80755.56006-7.30708-2.04313-8.49676-4.24838-1.197-2.21693-2.46012-13.87275-2.31717-16.221.14667-2.45251,2.20142-3.35305,5.79316-4.63458,3.34532-.63178,5.53062-.584,6.12939-1.49577.7912-1.20484-.66527-3.4005-.72242-4.29745-6.19487-.11976-12.26974.88053-18.152.77245-7.95983-.14673-16.21329-2.105-22.40043,2.31729-1.05434,1.52165.77245,5.92443-1.54478,6.17941-2.16661-.66437-1.67239-3.99333-3.86219-4.63458a9.8079,9.8079,0,0,0-5.19877,2.882l-2.50937,1.67287A59.18857,59.18857,0,0,0,52.818,28.91789l-1.23467.899c-1.46438,1.22413-3.09261,2.40985-3.12778,2.50979L47.01424,33.44c-3.06242,2.09957-6.5341,4.21567-6.94126,8.609-.23558,2.53363,1.17015,5.16372.77239,8.4967,1.17788-.15445.09658-2.437.38619-3.86213.255-1.259,1.34407-1.76885,1.1587-2.70354,2.14738-1.41729,4.73109-2.89658,7.72419-5.02071,3.57634-2.53735,6.73181-7.32656,10.814-4.24838.81109,7.68561,2.13569,14.85771,3.08974,22.40037-1.70708-.03091-2.29806,1.04667-2.70348,2.31735-1.43682.40543-.757-1.30165-1.54484-1.5449a151.22222,151.22222,0,0,1-16.9934,11.58644c.21628,1.39811-1.14714,3.20165,0,4.24826,6.21806-4.2098,11.74083-9.11446,18.53824-12.745.38619.645,1.78431.27428,1.931,1.1587-2.4023,2.28631-5.9167,2.86189-8.4967,4.63458-.34749.23947-.74543,1.21251-1.15858,1.54478-4.78526,3.84673-7.07936,8.60874-7.33806,16.9934,2.57221.135,1.44449-2.51416,1.931-3.86213,1.26673-3.5144,4.61133-7.23771,8.49664-7.33806,4.06679-.10407,5.22939,3.32549,7.33812,5.79322,4.44915-3.7-1.01965-12.02656.38619-18.152,1.84224.72979,1.39811,3.75009,1.5449,6.17941,1.87316,3.02036,1.25133,8.53139,5.407,9.26909.45953-7.29163,5.21387-15.6186,13.51747-13.90361,1.5062.31262,2.09717,1.71493,3.86213,2.31723,1.50236-2.48732,4.91251-3.07045,7.72425-4.24832-.09664-6.29894.57935-11.18479-3.47587-13.51747-.77245-.44413-2.32885-.42484-3.476-.77245-1.09675-.33209-2.213-.76466-3.47587-1.15858-1.79587.27038-3.29056-.37853-5.79322-1.1587-.1777-3.59564-.7223-6.48449-.77239-9.26909-6.86685-.69912-3.6613,9.215-3.476,13.51747,2.46024.01546,3.62661-1.26673,5.02077-2.31729,1.13941.66041,3.32154.2859,3.08974,2.31729-.0541,1.10454-1.61044.70685-2.70348.77245-5.38779,2.20525-10.169,5.02071-15.83476,6.95186-1.2087-6.33008-3.01626-12.99227-2.70345-19.69687-.726-.94637-.57923-2.76915-1.15858-3.86219,1.626-2.01611,4.03983-3.28661,6.17941-4.63458,2.16661-1.35941,4.35263-3.21322,7.33806-3.47587H76.377c3.20555.784,2.27092,5.7121,3.0898,8.88284.59229.214,1.957-.41651,2.3204,2.70875a45.45207,45.45207,0,0,0,.8897,6.49929c.16218.54065-.37913,1.87639,1.03816,1.21975.83434,1.41741-.14667-2.15882.77245-1.931,5.1675,1.65292,10.783,2.86189,15.06237,5.407.23941,4.74266-.30519,8.70526-.38625,13.13122h2.70348c-3.0998-3.48294-.97945-6.86331,1.6244-8.19349a5.64613,5.64613,0,0,1,1.08262-.21928c.18729-.00677.43275.00312.68234.01989,1.55646.49877,3.541.56935,4.335,1.82727,1.15864,3.13239-.703,5.43-2.70342,6.56561a12.41117,12.41117,0,0,0,3.86207-.77239c.03852-.60643-.05021-1.34006.77245-1.15864.98094-3.58419-2.298-9.22667,1.15864-10.04154,1.88089,2.49493.55215,8.19954,1.5449,11.58638,2.298-.5718.846-3.54531.77233-5.407-.09274-2.31351-.70679-5.33363,1.15864-6.56561,2.23245,2.52962.76077,8.76331,2.31735,11.97257,2.06608-2.69593-.564-10.09175,1.54484-12.745,2.66083,2.35977.05811,9.98349,2.31723,12.745,2.9777-2.3482-1.73794-9.69,1.5449-12.35883,2.05062,1.205,1.317,5.75458,1.54484,9.26909.0656,1.01575-.71062,3.445,1.1587,3.08974,1.47917-3.02407-1.147-10.15729,1.54478-11.97257,2.15138,1.205.81876,5.04,1.15865,7.72425.25121,1.96578.96172,2.87735,1.15865,4.24832h2.70354c-.37074-1.14319-1.92732-2.67634-1.54491-5.02077a3.45611,3.45611,0,0,1,1.3143-2.12239,7.736,7.736,0,0,1,4.47725-1.30291c2.087.34276,2.51627,2.34335,3.47755,3.81156C140.70148,54.951,141.01414,53.46534,140.91309,52.39392ZM79.853,52.8631c.78018,2.742,1.74177,7.20679,1.54484,9.65535-2.2554-1.84626-1.5603-5.998-2.70348-9.65535ZM67.49415,57.11142c1.20106-.40165,4.38738-3.02779,4.63452-.77239-1.44053.23156-2.78077.56761-3.47587,1.54478.93457.90749,2.22071-1.10844,3.86213-.77239-.14673,2.29806-2.17829,2.71523-4.63452,2.70348C67.1735,58.70263,67.25462,58.60611,67.49415,57.11142ZM84.87375,42.4353a72.63671,72.63671,0,0,1-3.47593-23.17276c4.492-.90468,10.77625-.55862,15.63417-.5603,3.86129-.00132,6.64242,2.35611,6.7662,3.26378A92.06094,92.06094,0,0,1,105.343,33.55241c.22024,3.57628,1.32879,5.70042-.38619,7.72425A119.89678,119.89678,0,0,1,84.87375,42.4353Z"/><path class="cls-3" d="M57.48281,119.35542v-.00022a1.93534,1.93534,0,0,0-.18985-.52408c-.52519.30244-1.07113,2.26919-.98238,5.13333A5.0355,5.0355,0,0,0,57.48281,119.35542Z"/><path class="cls-3" d="M75.94917,114.347v-.00022a1.87535,1.87535,0,0,0-.16027-.56073c-.50863.23378-1.20071,2.17979-1.35966,5.03156A4.852,4.852,0,0,0,75.94917,114.347Z"/><path class="cls-3" d="M177.0472,121.10105c-.647-5.669-11.96266-12.491-26.14627-17.82406-18.85027-7.08772-42.09277-10.99247-62.04722-10.2181l-.01683.00072-.0021.00287c-.0585.07914-1.48373,1.94192-5.94971,2.348-.291.02638-.57155.03863-.84088.03863a7.404,7.404,0,0,1-4.5811-1.45072c-10.145,1.16992-20.897,3.12133-25.7473,4.49992-11.507,3.27056-19.0931,7.40882-31.49937,14.764-4.52972,2.68555-9.13456,8.9909-8.64187,14.64649.44185,5.07285,3.86772,10.6445,5.80836,15.31445A81.666,81.666,0,0,0,26.523,160.04778a6.52643,6.52643,0,0,0,2.92314,2.28706,9.1854,9.1854,0,0,1,1.81768-3.82848c.107-.14206.22346-.28412.34577-.426.02622-.03081.05177-.0601.07738-.08957l.04984-.0573c.26044-.29047.54793-.57762.84766-.85666a26.60566,26.60566,0,0,1,3.57333-2.72821c5.61928-3.538,10.81012-5.5733,16.87242-8.0536,14.30128-5.85107,30.748-8.47658,46.35984-9.649,16.413-1.23267,31.99713-1.68021,47.76117,3.91209,2.50993.89044,13.56847,3.762,14.25371,7.18872v.00006c.00011.00021,1.4483,2.10887.36723,3.54938,5.18643-1.79947,7.52141-8.01353,9.73421-12.68173C173.64783,134.09686,177.62769,126.18621,177.0472,121.10105ZM35.7492,142.01489l-4.38849-11.11218L32.144,143.988l-3.89752,2.13342-6.94335-17.5811a6.46748,6.46748,0,0,0-.67376,6.68042,3.15172,3.15172,0,0,0,.75412,1.2771,1.08553,1.08553,0,0,1,.232.289l.20111.39163-.38633.21127a2.84953,2.84953,0,0,1-2.35661.3998,2.96163,2.96163,0,0,1-1.60647-1.88573c-1.39874-3.54166,1.20491-9.35559,5.15916-11.52014.32386-.177.62983-.31149.92587-.4413l.4243-.18632,5.55123,13.54429-1.47843-15.72651,3.55909-1.94821,5.34681,13.53922-1.37975-15.71061,2.399-1.31308,1.6972,23.72663Zm33.086-23.37673c-1.148.325-1.53627-.66228-1.72281-1.13669-.03466-.0883-.0819-.20818-.12208-.28787-.4168.15586-.65985.50135-1.04331,1.18305l.368,11.355-4.25758,1.2027-.05519-1.7652a6.98971,6.98971,0,0,1-3.81142,3.345,3.51752,3.51752,0,0,1-3.83107-.63557,4.37424,4.37424,0,0,1-2.49172,2.95576,2.94224,2.94224,0,0,1-2.45551.04549,3.56957,3.56957,0,0,1-1.74-2.29877,22.651,22.651,0,0,1-.56206-3.8569,21.43851,21.43851,0,0,0-.49185-3.47454c-.18191-.60621-.37794-.74021-.43379-.7667-.02384-.01148-.07969-.038-.21392.017-.52276.2148-.8188,1.7663-.72763,2.62682L46.361,136.935l-4.13042,1.69765L39.8858,117.9664l4.041-2.43278.72983,6.48174a3.85809,3.85809,0,0,1,1.748-1.42236,2.8177,2.8177,0,0,1,2.31975-.04261,3.56157,3.56157,0,0,1,1.71751,2.361,23.52637,23.52637,0,0,1,.62961,4.451,17.86379,17.86379,0,0,0,.38081,2.99.87068.87068,0,0,0,.30178.51945.47862.47862,0,0,0,.34041-.0415c.49627-.204.72586-.672.83514-1.71553l-.01589-.05983c-.83447-3.335-.94-10.76978,4.06-12.46941a2.97225,2.97225,0,0,1,2.422.03245,3.00938,3.00938,0,0,1,1.36032,2.071,7.24093,7.24093,0,0,1-3.77434,7.99461c.05077.26447.10309.52232.15851.74286.208.83072.46028,1.33185.75014,1.48969a1.15077,1.15077,0,0,0,.90512-.05563c1.51817-.51614,2.284-1.79588,3.077-3.82975l-.30112-9.6534,4.25581-1.20248.03157.94993a3.76928,3.76928,0,0,1,1.933-1.50492,1.80529,1.80529,0,0,1,1.461.18676A2.7078,2.7078,0,0,1,70.407,115.599a2.4804,2.4804,0,0,1-1.57182,3.03917Zm6.593,8.89244a5.14387,5.14387,0,0,1-1.13956.13687,3.36973,3.36973,0,0,1-1.90957-.549,5.13866,5.13866,0,0,1-1.92083-3.59331c-.58722-3.40743-.14239-10.82188,4.98079-11.99279a3.00486,3.00486,0,0,1,2.39613.27485,3.09836,3.09836,0,0,1,1.20778,2.19921,7.00833,7.00833,0,0,1-4.35869,7.56964c.01744.16734.03709.32717.06049.46382.17639,1.02344.4764,1.41353.69716,1.56055a.73393.73393,0,0,0,.62034.07793,4.47,4.47,0,0,0,2.244-1.93121l.80622-1.253.026,1.48969c.03732,2.13515-.57616,4.83061-3.7103,5.54676Zm32.20361-4.68961a.79717.79717,0,0,0,.59826.23533l.03311.00022a4.22014,4.22014,0,0,0,2.5213-1.31816l1.02455-1.01086-.26226,1.41507c-.70533,3.80524-2.97253,4.55649-4.74347,4.507a3.70652,3.70652,0,0,1-3.45843-1.97933,3.92793,3.92793,0,0,1-3.22884,1.88993,3.04222,3.04222,0,0,1-2.29215-.8263,3.88666,3.88666,0,0,1-1.00645-2.81447,22.67417,22.67417,0,0,1,.56316-3.85734,21.45532,21.45532,0,0,0,.52077-3.46924c.00022-.64484-.14813-.8603-.21193-.923a.25361.25361,0,0,0-.21811-.07086c-.53623.00949-1.2367,1.3484-1.39255,2.1842l-1.72612,9.70528-4.3865.0766.07859-.44a4.48166,4.48166,0,0,1-2.42836.9358c-.07925.00552-.15784.00839-.23533.00839a2.64186,2.64186,0,0,1-1.806-.6625,4.12179,4.12179,0,0,1-1.14111-3.03324,11.50522,11.50522,0,0,1,.1276-1.95108l1.06738-7.58973-.78723.05519.26822-2.07272.79871-.05585.56713-3.9441,4.48033-1.0411-.664,4.67769,1.43516-.10067-.26822,2.07272-1.44664.10133L88.84258,121.874a4.35425,4.35425,0,0,0-.05806.84286c.01325.35851.09117.466.12407.49561a.64193.64193,0,0,0,.41724.05961c.63932-.04481,1.29719-.89739,1.60338-2.07581l2.68143-15.0103,4.51035-.80445-1.15347,6.42522a3.54663,3.54663,0,0,1,2.10053-.72785,2.93191,2.93191,0,0,1,2.16455.78017,3.86613,3.86613,0,0,1,.96583,2.8637,23.49906,23.49906,0,0,1-.66758,4.4428,17.75494,17.75494,0,0,0-.48876,2.97077.95756.95756,0,0,0,.157.64.43774.43774,0,0,0,.34527.09471c.42739-.00751.78414-.22429,1.22721-1.26473-.00022-.01612,0-.03245.00044-.04923.10354-3.44584,1.98331-10.48235,7.12106-10.48235.047,0,.09382.00044.14151.00177a3.09785,3.09785,0,0,1,2.26389.84816,3.23438,3.23438,0,0,1,.73933,2.43432,6.62221,6.62221,0,0,1-5.75477,6.31661c-.01545.15806-.0276.31414-.03179.45079a2.49524,2.49524,0,0,0,.38054,1.71461Zm10.81945,3.93571,6.09519-18.24913a3.59627,3.59627,0,0,0-2.67076.536c-.94044.69429-1.56828,2.08994-1.86653,4.14874a3.65576,3.65576,0,0,0,.00751,1.57269,1.21784,1.21784,0,0,1,.04967.36668l-.02561.5009-.49561-.07749c-2.00892-.31348-2.8339-1.51088-2.5224-3.66064a7.74084,7.74084,0,0,1,2.91447-5.223,8.77429,8.77429,0,0,1,6.77689-1.26849,16.9671,16.9671,0,0,1,3.41495.90114,13.16546,13.16546,0,0,0,2.57561.7018,6.24646,6.24646,0,0,0,2.64073-.15056l.698-.21524-.11855.72078c-.3031,1.8407-1.24442,3.94432-4.009,3.51185a13.85422,13.85422,0,0,1-3.25159-1.03581L122.78008,127.453Zm16.185-8.96154a3.30248,3.30248,0,0,0-.009-.36558c-.432-.057-.772.13864-1.3634.57817l-3.86308,10.58038-4.29643-.86229,5.30089-14.464,4.29489.86229-.33313.915a3.44008,3.44008,0,0,1,2.36633-.50709,2.38792,2.38792,0,0,1,1.61266,2.96459,2.71545,2.71545,0,0,1-1.07,1.78838,1.96158,1.96158,0,0,1-1.52634.29516c-1.13077-.22714-1.11952-1.24043-1.11333-1.785Zm31.52322,10.07108c1.38571.85477,1.86166,2.57693,1.20778,4.53374a5.899,5.899,0,0,1-.468,1.06737l-.69473,1.23891c-.02495.0468-.05519.10089-.08565.15585a3.60375,3.60375,0,0,0-.28014.58125c-.16888.50642-.02892.67619.28876.81218.37706.16182.45874.15431.56271.14394l.78745-.05939-.27132.67377a3.50343,3.50343,0,0,1-1.91156,2.02724,2.81752,2.81752,0,0,1-1.05566.22142,1.63163,1.63163,0,0,1-.6391-.11656,3.5706,3.5706,0,0,1-2.15475-4.56679q.04974-.13859.11075-.27271a8.59149,8.59149,0,0,1,.63557-1.41882l.52916-.97289a4.95259,4.95259,0,0,0,.391-.88612c.30045-.89938-.00662-1.03073-.12209-1.08019a2.07632,2.07632,0,0,0-1.49213.22958l-3.50876,6.38019-4.05867-1.738.72763-1.316a5.99363,5.99363,0,0,1-4.69226.43379,4.00373,4.00373,0,0,1-2.89526-2.96768,4.16942,4.16942,0,0,1-3.83594.98636,2.718,2.718,0,0,1-2.10429-2.53653,3.82121,3.82121,0,0,1-3.66594,1.06053c-.685-.17528-2.86192-1.01968-2.10915-4.52933a11.23017,11.23017,0,0,1,.60046-1.84644l3.66505-8.93946,4.24875,1.087-3.92026,9.56266a4.228,4.228,0,0,0-.21458.68877c-.04659.217-.12759.72873.125.79341.80556.2084,1.57225-1.13162,1.87271-1.73275l3.65887-8.92312,4.24831,1.087-3.92026,9.56266a4.265,4.265,0,0,0-.2616.79474c-.12053.56271.00021.64352.40553.74706.50377.13025.99232-.34152,1.32919-.79031.01523-.06954.03091-.1393.05011-.21193.51746-1.95792,2.28972-6.09143,5.2925-7.72417a4.97659,4.97659,0,0,1,4.06706-.39185,2.96765,2.96765,0,0,1,2.17714,3.91982,2.78037,2.78037,0,0,1-1.19144,1.82414,1.41,1.41,0,0,1-1.13715.106,1.9307,1.9307,0,0,1-.94728-.76515l-.1722-.24615.16-.25409a5.29437,5.29437,0,0,0,.65213-1.41286c.09448-.35763.11612-.74308-.04836-.79694a.62394.62394,0,0,0-.43864.10442c-1.32544.72078-3.38007,4.11872-4.07126,6.733-.46844,1.77338-.00861,2.06808.74617,2.31532,1.49586.48875,2.67606-.08455,4.30991-1.3239l7.06874-12.78245,4.39909,1.10755-4.52359,8.18225,4.68983-1.8535,3.501,1.499Z"/><path class="cls-3" d="M109.65526,114.03157a1.73625,1.73625,0,0,0-.05563-.62122c-.51172.06446-1.59941,1.84291-2.31975,4.59291A4.56691,4.56691,0,0,0,109.65526,114.03157Z"/><path class="cls-4" d="M112.01651,5.39575l.15773.06954c2.05439-.02442,4.173.16852,5.66437,1.26015-1.41927-1.09682-3.44253-1.33465-5.43942-1.33461C112.27127,5.39084,112.14411,5.394,112.01651,5.39575Z"/><path class="cls-4" d="M49.46867,97.08815a22.62,22.62,0,0,1-1.28521-2.514.56625.56625,0,0,0-.07285-.0206,22.22726,22.22726,0,0,0,1.312,2.54869Z"/><path class="cls-4" d="M118.42374,88.29693a6.56966,6.56966,0,0,1-1.49433-1.83327,28.77323,28.77323,0,0,1-2.70343-6.95185l-.07.01492a28.379,28.379,0,0,0,2.677,6.86471A6.2767,6.2767,0,0,0,118.42374,88.29693Z"/><path class="cls-4" d="M142.50877,60.671c.547.46946,1.71729.31144,2.31853.72549C144.29329,60.91483,143.12161,61.07428,142.50877,60.671Z"/><path class="cls-4" d="M120.30892,89.86736l.0138.00313a.90972.90972,0,0,1-.1085-.242l-.02086-.06656c-.05453-.17859-.10276-.36011-.17418-.39483l-.04791-.02248C120.08,89.31576,120.13938,89.82663,120.30892,89.86736Z"/><path class="cls-4" d="M140.47105,45.73267c-2.62042-1.92177-6.83275-2.95-9.34875-4.77983C133.595,42.805,137.81,43.83173,140.47105,45.73267Z"/><path class="cls-4" d="M124.26748,28.91785a7.23167,7.23167,0,0,1,4.04356,1.12248,6.98063,6.98063,0,0,0-4.0579-1.18944C124.25744,28.87324,124.26329,28.89548,124.26748,28.91785Z"/><path class="cls-4" d="M99.55615,91.13726c.17032-.22516.32937-.46314.48181-.708C99.88464,90.67376,99.72525,90.91164,99.55615,91.13726Z"/><path class="cls-4" d="M99.55615,91.13726c.84639.03013,1.84048.10158,2.74052.14471A18.593,18.593,0,0,0,99.55615,91.13726Z"/><path class="cls-4" d="M75.52371,91.84062c.04172.04833.083.0942.12445.14027l.00629-.00155C75.60942,91.93472,75.5677,91.8864,75.52371,91.84062Z"/><path class="cls-3" d="M63.632,93.02931c-.09272.67961-.66438.88067-1.54482.77238a1.2169,1.2169,0,0,0-.074.28252q.82421-.15588,1.66-.30448C63.76763,93.4631,63.78651,93.20007,63.632,93.02931Z"/><path class="cls-3" d="M75.52371,91.84063A9.3981,9.3981,0,0,1,74.446,90.32577l-.05033.005c-.01479-.02622-.03157-.05066-.04608-.07716a16.48413,16.48413,0,0,1-1.89638.10028c-1.38919,0-2.77981-.128-4.48827-.128-.42524,0-.87.00789-1.33957.02771-.17766,1.06213-.35868,2.05759-.65008,3.19876a11.70994,11.70994,0,0,0,1.84787-.26706c2.63267-.348,5.45669-.591,8.13976-.87278-.10138-.09923-.20757-.21259-.31469-.33158l.00629-.00155C75.60942,91.93473,75.5677,91.88644,75.52371,91.84063Z"/><path class="cls-3" d="M45.86619,89.55339c.06562-.45184.61024-.42093,1.15866-.38622V86.84985C45.77734,86.65674,44.94706,88.85446,45.86619,89.55339Z"/><path class="cls-3" d="M63.632,91.48443c-.07329-.57177-.93459-.35526-1.54482-.38622C61.26454,92.51935,64.05285,92.84,63.632,91.48443Z"/><path class="cls-3" d="M80.23915,73.33243c-1.79208,1.6376-2.22449,9.94116,1.54488,9.65533C83.9855,80.24576,83.66871,75.01645,80.23915,73.33243Z"/><path class="cls-3" d="M89.89448,84.53259c-1.36717-.04261.8188-1.2782-.38622-1.15866-.54064,1.124-1.33251-.68336-2.31726-.38616-.55234,1.71078,1.30535,1.01191,1.15866,2.31726-.89993.12749-1.66464.39792-1.931,1.15866a1.0672,1.0672,0,0,1,1.1586.77238,2.51041,2.51041,0,0,1-1.931.38622c-.34163,1.19437.53435,1.16815.744,1.81029a11.50593,11.50593,0,0,1,1.043.90147,5.6059,5.6059,0,0,1,.91654-.3945,1.055,1.055,0,0,1-.77244-1.1586C89.9718,88.44865,87.82049,85.84964,89.89448,84.53259Z"/><path class="cls-3" d="M35.68435,40.14706l-.0016.00237.00025.002q.1438,1.05812.27667,2.13359l.02166.1733q.12848,1.03792.24935,2.08318l.02707.234q.11933,1.03357.23376,2.0662l.02671.2419q.11213,1.01308.22164,2.018l.00331.03a155.02823,155.02823,0,0,0,2.84869,18.9511,9.70068,9.70068,0,0,0-.57243,6.58218,3.32076,3.32076,0,0,0,1.0224,1.89862,4.82806,4.82806,0,0,0,1.35075.85856h0a69.73023,69.73023,0,0,0,1.1952,7.36643,3.54053,3.54053,0,0,0-.69164.3488,3.02131,3.02131,0,0,0-1.37092,2.57285,15.0101,15.0101,0,0,0,1.78816,8.02573,2.26164,2.26164,0,0,0,1.057,1.027c.106.04967.21325.09476.32143.13737l2.18045.5078.18847-.05729a.996.996,0,0,0,.55455.63612q.62552-.207,1.26236-.40907a10.21837,10.21837,0,0,0,1.55227-.463l-.00729-.01253.046-.01407c-.12975-.2153-.25462-.43545-.37653-.65858-.07707-.141-.15188-.28426-.22614-.42808q-.35925-.69567-.68254-1.42735a.55982.55982,0,0,0-.07285-.02064L48.087,94.502a.71014.71014,0,0,0-.27959-.04917c-.51459,0-1.2936.35057-2.21318.35057a3.1712,3.1712,0,0,1-1.29216-.268,12.97328,12.97328,0,0,1-1.52308-5.1989,13.61647,13.61647,0,0,1-.00254-1.7142c-.04567-1.43629,2.18346-.60524,2.31108-1.86832.0021-.02086.00524-.0407.00618-.06272A73.56662,73.56662,0,0,1,43.54882,76.036a1.29762,1.29762,0,0,0-.40432-.40819c-.41657-.32391-1.01936-.46227-1.46088-.76239a1.15585,1.15585,0,0,1-.45206-.76052,12.718,12.718,0,0,1-.237-1.60964,6.03589,6.03589,0,0,1,.99121-4.15672l.01827-.02682c-2.30689-8.97-2.82308-19.73441-4.23-29.60442-.00632-.04448-.012-.08957-.01838-.134,8.1801-8.18,21.03319-15.62617,31.66947-23.1728,3.73465-2.65332,5.33743-4.538,11.97265-5.02075,6.53522-.47684,16.75862-.32838,24.83054-.32783-.09327-.02484-.187-.04779-.28037-.07224l.228.00022c2.37372,0,4.55881-.013,6.40867-.05856.11148-.0027.22407-.00276.33611-.0043l.15773.06954c2.05439-.02445,4.173.1685,5.66437,1.26015a4.4246,4.4246,0,0,1,1.17985,1.37809q.09893.179.18411.37206c.85042,1.919.75627,4.83545,1.36077,7.73839.66835,3.20952,2.23244,5.60388,2.70354,8.1105l.061.00386.021.00132c.0043.02235.01015.04459.01435.067A7.23154,7.23154,0,0,1,128.311,30.0404a4.97618,4.97618,0,0,1,1.267,1.50884l-.00369.03546c-.24228,2.50458-.89011,5.23651-.38252,6.91639a3.65307,3.65307,0,0,0,.25546.61954l.00192.004c.01683.03259.032.066.04977.09816a5.48728,5.48728,0,0,0,1.62325,1.73015c2.47273,1.85212,6.68771,2.87893,9.34875,4.77984a6.00681,6.00681,0,0,1,1.85207,2.03745l.0027.03709c.42265,4.59413-.7731,8.98709-.0027,12.70794a.71113.71113,0,0,0,.0829.08,1.12892,1.12892,0,0,0,.10275.07589c.547.46945,1.71729.31144,2.31853.72547a.78316.78316,0,0,1,.19923.27727,6.7395,6.7395,0,0,1,.366.67337c1.19751,2.5378-.20729,4.15112.02025,6.27847-1.86542,3.03578-6.51917,4.8778-10.04149,5.02075.36977,7.25506-3.1891,16.63069-11.80327,16.63069a13.87608,13.87608,0,0,1-3.24528-.40658.91.91,0,0,1-.1085-.242l-.02086-.06656c-.05453-.17859-.10276-.36011-.17418-.39483l-.04791-.02252a.1313.1313,0,0,0-.04857-.04967,8.82343,8.82343,0,0,1-1.499-.798,6.57,6.57,0,0,1-1.49433-1.83325,28.77323,28.77323,0,0,1-2.70343-6.95185l-.07.0149-.02649-.08709c-4.10161.91913-8.51968,1.52181-12.74509,2.31726a12.20733,12.20733,0,0,1-1.09365,8.24139q-.12179.22008-.25288.431-.11834.18872-.24217.37115c-.07793.11468-.15757.22733-.23964.33688.754.02682,1.62468.08632,2.44221.12953.00309-.10588.00615-.19286.00919-.207v-.00006l.04893.00287.00544.00033a7.24811,7.24811,0,0,0,.50918-.62933,7.33565,7.33565,0,0,0,1.06086-2.22013,15.10625,15.10625,0,0,0,.35388-4.39544c.91373-.15939,1.83187-.3137,2.73279-.46514,1.96871-.33092,3.98687-.67012,5.96179-1.06164h.00006a23.52516,23.52516,0,0,0,2.33233,5.49759,11.48707,11.48707,0,0,0,1.15546,1.60459c.70152,1.02137,2.20688,2.10859,4.85242,2.60406a17.29047,17.29047,0,0,0,3.03821.27388c.148.00392.29769.00011.44715-.00287.09945-.002.19879-.0043.29869-.00927.10872-.00541.21778-.01358.32706-.02241.09978-.00806.19946-.01617.29935-.02693.1095-.01181.21888-.02649.32838-.0415.09989-.01369.19979-.02721.29968-.04349.10994-.01788.21944-.03863.32915-.05955.099-.01887.198-.03736.29681-.05856.04437-.00955.08841-.021.13268-.031.06534-.01523.1308-.02991.196-.04575.09791-.02368.19592-.0468.29328-.07269l.02406-.00684c.10089-.02721.201-.05635.30123-.0856.096-.028.19217-.05541.28732-.08543.04713-.01485.09338-.03113.14008-.0468q.09254-.03029.18456-.0617c.09195-.03151.18433-.06214.27528-.09537.10741-.0393.21292-.08124.31879-.12274.08887-.035.17848-.069.26613-.10541.08234-.03422.1627-.07037.24329-.1063l.06656-.029c.08543-.038.17186-.07506.25586-.11435.1021-.04785.20111-.09813.3009-.14785.08092-.04034.16315-.0798.24239-.12131l.00949-.00524c.09526-.05022.18732-.10227.28014-.154.07584-.04222.15332-.08356.22726-.12677l.01711-.01049c.09195-.054.18-.10966.26889-.165.06689-.04156.13567-.08234.20067-.12473.037-.02412.07086-.04923.10718-.07357.05321-.03659.107-.07291.15971-.10966.06236-.04343.12738-.086.18765-.13.08929-.06518.17241-.13185.257-.19819.05321-.04172.10928-.08273.16049-.12478.09-.074.17274-.14923.25641-.22435.03963-.03554.08279-.07053.12076-.10624q.17784-.16681.33334-.33578c3.33878-3.63675,4.75739-8.718,4.94127-12.97015,3.69994-.68469,7.77119-2.70012,9.70416-5.84584a2.26143,2.26143,0,0,0,.32166-1.4239,5.40277,5.40277,0,0,1,.18654-1.604,7.693,7.693,0,0,0-.82916-6.18371,3.50791,3.50791,0,0,0-2.65134-1.76972,32.31557,32.31557,0,0,1,.11943-4.6949,39.01527,39.01527,0,0,0,.08786-6.57407,2.26529,2.26529,0,0,0-.242-.82581c-1.46872-2.84449-4.66818-4.2131-7.76215-5.53655-2.26192-.96759-4.82559-2.06433-5.21391-3.34926a12.7878,12.7878,0,0,1,.204-3.89984c.09758-.71239.19868-1.44907.26868-2.18376a2.25968,2.25968,0,0,0-.28214-1.32622,7.1188,7.1188,0,0,0-5.19752-3.6166q-.196-.03742-.39235-.06794c-.26668-.82272-.5912-1.621-.90931-2.40325-.156-.38368-.31293-.77211-.46536-1.16611l-.00132-.00331a23.91083,23.91083,0,0,1-1.32313-4.10277c-.50477-2.42491-.54588-4.8581-.99121-6.76632a6.81193,6.81193,0,0,0-.63049-1.7479c-1.27368-2.3052-3.92362-2.80506-6.58914-2.84391-.11987-.00174-.2398-.00378-.35962-.00378-.25211,0-.50433.00359-.75456.00971-1.94181.04785-4.23572.06143-6.72766.06143-3.27133,0-6.8822-.0234-10.47777-.0234-5.72508,0-11.41379.05944-15.63484.3674-6.96542.50675-8.64795,2.48526-12.56842,5.27065C57.69248,21.3761,44.52535,29.0356,35.92024,37.41664a2.25679,2.25679,0,0,0-.336.72012l-.00072.00276a2.25517,2.25517,0,0,0-.064.79667C35.57452,39.33968,35.63148,39.74136,35.68435,40.14706Z"/><path class="cls-3" d="M43.9351,67.53919c-1.456-4.98228-1.20877-11.66369-2.70348-16.60717.475,5.08642.87278,10.31954,1.54488,14.28991C42.87683,65.81671,42.88847,67.51618,43.9351,67.53919Z"/><path class="cls-3" d="M99.67845,89.42474c-.9656-1.21258.97686-3.20924.38622-3.86214-.09283.67967-.6646.88072-1.54488.77244-.47894,1.25143,1.25138.29345.77244,1.54488-1.572.53291-2.59945,1.25138-1.9311,3.0897a5.23087,5.23087,0,0,0-.69374.11778q.61277.01275,1.25447.03008C97.82363,90.24293,98.78228,89.86477,99.67845,89.42474Z"/><path class="cls-3" d="M55.52152,82.98776c-2.96994,1.01191-3.5687,8.9255.77238,8.88289C58.97819,90.34879,57.92383,83.97627,55.52152,82.98776Z"/><path class="cls-3" d="M99.16364,69.47029a7.47406,7.47406,0,0,0-.77244-6.17941c-3.34093-.81885-5.19846.92289-7.72429,1.931a6.82435,6.82435,0,0,0,.77244,5.407C94.70291,71.77585,96.1666,69.6517,99.16364,69.47029Z"/><path class="cls-3" d="M90.23776,90.59113a3.0913,3.0913,0,0,1-.2557.50118q.45748-.014.98244-.02379A6.18363,6.18363,0,0,0,90.23776,90.59113Z"/><path class="cls-3" d="M143.61916,144.61813c-11.10489-3.22359-21.074-6.53654-28.80478-3.80557-.39814.88049-.11215,2.04552,1.26363,3.58105,1.20193,1.34145,3.77158,3.76563,5.77365,3.74387,1.69367-.01839,2.41467-.52348,2.48488-1.19266-1.23328-2.13448-4.75793-1.57423-5.49969-1.76035a9.44746,9.44746,0,0,1-2.1746-1.30458,1.36544,1.36544,0,0,1-.31238-.235c-2.10649-2.13017,1.1708-2.36528,2.85542-2.46716,5.586-.33788,12.07558,1.94357,17.23089,3.59463,4.30305,1.3781,8.29649,2.72456,12.64105,3.96275,1.65836.47266,3.33878,1.23537,5.04414,1.8725C152.81557,148.86732,149.93951,146.45287,143.61916,144.61813Z"/><path class="cls-3" d="M90.66692,82.60154c-.21232-.68761-.19692-1.60294-.77244-1.9311.06562.83806-1.371.1739-1.931.38622a2.0428,2.0428,0,0,0,2.70344,1.54488Z"/><path class="cls-3" d="M143.5782,62.51844c-14.33252-.1701-28.90037-.80335-42.48357,0-.40543.88442.57938,3.12436,1.15871,4.24836.73778-1.20507,1.38273.89987,1.9311,1.1586-.10828-1.01191.14294-1.66061,1.15866-1.54482.00375.5099.67586.35151.77244.77238-.08488.48656-.60234.78789.38622.77244,9.43507-.8071,20.85554,1.39024,30.897,0,.99265-.03847.55212-1.50636,1.54488-1.54482.76859.00375.49031,1.05452,1.54488.77238.16216-.73773.13908-1.66061,1.15855-1.54482v1.931C143.37753,66.95236,143.75955,65.01712,143.5782,62.51844Z"/><path class="cls-3" d="M134.05151,79.25421c-1.36728-.04261.8188-1.2782-.38622-1.15866-.54086,1.124-1.3325-.68336-2.31732-.38616-.51151,1.58467,1.04343,1.103,1.1591,2.06057l-.00034-.00039a1.031,1.031,0,0,1-.0766.26982,2.95323,2.95323,0,0,0-1.39674.5083c-.02451-.00259-.04659-.00276-.07164-.00585-.01379.03615-.02539.07-.03564.10254a1.37254,1.37254,0,0,0-.35057.54086,1.067,1.067,0,0,1,1.15866.77244,2.50994,2.50994,0,0,1-1.93111.38622,1.145,1.145,0,0,0,.03423.93376,1.81,1.81,0,0,0-.1776,1.3962,2.18137,2.18137,0,0,1-1.01517-.39886,1.06127,1.06127,0,0,0,.17683,1.09111,3.90633,3.90633,0,0,0-2.022,1.39393c-1.41772.09393-2.80376.06479-2.40319.99083.36326-.70676,1.94655.59478,3.08976.38622-.10928-1.58892,2.61281-.10172,1.7397-1.6254a3.15957,3.15957,0,0,1,.61736-.373,2.00437,2.00437,0,0,0,.61691-.175c.03809-.00541.076-.011.11568-.01485-.00761-.01413-.01192-.02677-.0191-.04073a4.26248,4.26248,0,0,1,1.9502-1.24691,1.00949,1.00949,0,0,1-.75047-.85313c.12076-.05861.24306-.117.36424-.1765a1.21857,1.21857,0,0,1-.11844-.18185C133.95815,82.95967,132.06181,80.51768,134.05151,79.25421Z"/><path class="cls-3" d="M140.87466,60.97357c-.15045-1.00816-.19681-2.12035-.77245-2.70348-.50575,1.29365-2.00043,1.60294-2.70343,2.70348Z"/><path class="cls-3" d="M124.65376,30.84892c1.50636,2.101.72972,6.47683,3.08965,7.72429C128.40005,36.7425,128.9406,28.74022,124.65376,30.84892Z"/><path class="cls-3" d="M136.62634,53.24934c-1.03117.15067-2.77705,1.572-1.93111,2.31726,1.30911-.37077-.09271,1.48676,1.93111,1.15866.06943,1.35552-1.30534,1.27064-1.54488,2.31726a2.51054,2.51054,0,0,0,1.93111.38622c.38248-1.2899,1.228-2.1204,1.54488-3.47592C138.10556,54.85978,136.87758,54.543,136.62634,53.24934Z"/><path class="cls-3" d="M104.18444,59.42874c5.04382.86516,3.49894-5.44168.77244-5.407-.85732.01153-2.37913,1.32086-1.9311,2.31732,1.59885-1.28234-.23566,2.97391.38622,1.54482.23577-.112,1.48682-.96174,1.54488,0C105.239,58.93843,104.1882,58.66011,104.18444,59.42874Z"/><path class="cls-3" d="M54.93945,168.05664l-.29883.87891a2.11975,2.11975,0,0,1-.61523.958,1.228,1.228,0,0,1-.76758.29.88531.88531,0,0,1-.39551-.085.64573.64573,0,0,1-.2666-.23145.8426.8426,0,0,1-.09961-.42187,1.73886,1.73886,0,0,1,.041-.36621q.041-.19043.08789-.36328t.05859-.22559l.2168-.873a6.48675,6.48675,0,0,1-1.16895,1.957,1.74228,1.74228,0,0,1-1.24512.60938.97826.97826,0,0,1-.84082-.39551,1.74977,1.74977,0,0,1-.29-1.05762,5.557,5.557,0,0,1,.51855-2.17383,6.61048,6.61048,0,0,1,1.3418-2.03906,2.38573,2.38573,0,0,1,1.68457-.83789.67118.67118,0,0,1,.52441.23438,1.10761,1.10761,0,0,1,.24316.66211l.1875-.73242a3.87931,3.87931,0,0,0,1.10742-.16406l-1.5,5.30273a1.96929,1.96929,0,0,0-.08789.44531q0,.29883.26953.29883.52734,0,.91992-1.22461l.14648-.44531Zm-1.418-3.10547a1.44728,1.44728,0,0,0-.17285-.76172.54425.54425,0,0,0-.48926-.28125q-.50977,0-1.08691.79395a7.17967,7.17967,0,0,0-.9668,1.96582,6.99791,6.99791,0,0,0-.38965,2.20313,1.73316,1.73316,0,0,0,.10547.71191.334.334,0,0,0,.31055.21387,1.24858,1.24858,0,0,0,.7998-.5127,6.58207,6.58207,0,0,0,.91406-1.36816,10.37536,10.37536,0,0,0,.74121-1.82812l.22266-.873Q53.52148,165.02734,53.52148,164.95117Z"/><path class="cls-3" d="M62.2627,162.23535a3.40783,3.40783,0,0,1,.67969-1.00488,1.95445,1.95445,0,0,1,.67383-.44238,2.18375,2.18375,0,0,1,.82617-.16113,1.30716,1.30716,0,0,1,.835.24023.75213.75213,0,0,1,.30176.61523.80573.80573,0,0,1-.10547.39551.86652.86652,0,0,1-.29.31055.73115.73115,0,0,1-.40723.12012.54907.54907,0,0,1-.35742-.10547.34947.34947,0,0,1-.123-.29883.736.736,0,0,1,.1875-.501,1.04649,1.04649,0,0,1,.498-.30762q0-.11133-.16113-.19922a.80326.80326,0,0,0-.38965-.08789,1.04812,1.04812,0,0,0-.69727.31055,1.85578,1.85578,0,0,0-.42187.74121q-.17578.50684-.33105,1.11035t-.21973.86133l-.00586.01172h1.42383l-.07617.24023H62.69043L60.54,172.09961a3.66927,3.66927,0,0,0-1.07812.16992l2.19141-8.18555H60.56348l.07617-.24023h1.07227l.00586-.01172A9.798,9.798,0,0,1,62.2627,162.23535Z"/><path class="cls-3" d="M64.88086,166.2666a4.93734,4.93734,0,0,1,1.21-1.83691,2.59134,2.59134,0,0,1,1.83984-.75,1.55456,1.55456,0,0,1,1.2041.47461,2.01164,2.01164,0,0,1,.43652,1.40625,5.66682,5.66682,0,0,1-.41895,2.03027,4.98219,4.98219,0,0,1-1.207,1.83984,2.57611,2.57611,0,0,1-1.83691.75293,1.559,1.559,0,0,1-1.207-.47754,2.0141,2.0141,0,0,1-.43945-1.40918A5.66682,5.66682,0,0,1,64.88086,166.2666Zm1.81641-1.56738a6.35217,6.35217,0,0,0-.876,1.95117,8.33893,8.33893,0,0,0-.32812,2.25q0,1.043.68555,1.043a1.4864,1.4864,0,0,0,1.16016-.7793,6.40035,6.40035,0,0,0,.873-1.94824,8.3268,8.3268,0,0,0,.32813-2.25293,1.46251,1.46251,0,0,0-.167-.791.57233.57233,0,0,0-.5127-.252A1.49344,1.49344,0,0,0,66.69727,164.69922Z"/><path class="cls-3" d="M71.33447,166.2666a4.93734,4.93734,0,0,1,1.21-1.83691,2.59134,2.59134,0,0,1,1.83984-.75,1.55456,1.55456,0,0,1,1.2041.47461,2.01164,2.01164,0,0,1,.43652,1.40625,5.66682,5.66682,0,0,1-.41895,2.03027,4.98219,4.98219,0,0,1-1.207,1.83984,2.57611,2.57611,0,0,1-1.83691.75293,1.559,1.559,0,0,1-1.207-.47754,2.0141,2.0141,0,0,1-.43945-1.40918A5.66682,5.66682,0,0,1,71.33447,166.2666Zm1.81641-1.56738a6.35217,6.35217,0,0,0-.876,1.95117,8.33893,8.33893,0,0,0-.32812,2.25q0,1.043.68555,1.043a1.4864,1.4864,0,0,0,1.16016-.7793,6.40035,6.40035,0,0,0,.873-1.94824,8.3268,8.3268,0,0,0,.32813-2.25293,1.46251,1.46251,0,0,0-.167-.791.57233.57233,0,0,0-.5127-.252A1.49344,1.49344,0,0,0,73.15088,164.69922Z"/><path class="cls-3" d="M83.01123,168.06836l-.28125.87891a1.81528,1.81528,0,0,1-.582.95215,1.31973,1.31973,0,0,1-.80664.28418.76194.76194,0,0,1-.5625-.19336.75329.75329,0,0,1-.19287-.55664,4.17669,4.17669,0,0,1,.15186-.93164l.1582-.60352a5.734,5.734,0,0,1-1.14795,1.74609,1.79475,1.79475,0,0,1-1.23633.53906,1.12728,1.12728,0,0,1-.917-.39844,1.82658,1.82658,0,0,1-.33105-1.18945,5.3013,5.3013,0,0,1,.52148-2.15332,5.77459,5.77459,0,0,1,1.41211-1.96289,2.84777,2.84777,0,0,1,1.939-.7998.7233.7233,0,0,1,.43945.15234.8285.8285,0,0,1,.293.42188l.59766-2.24414a1.22,1.22,0,0,0,.05273-.32227.38576.38576,0,0,0-.1875-.35449,1.28458,1.28458,0,0,0-.63281-.11426l.07617-.252a5.02749,5.02749,0,0,0,1.14258-.12891,4.5521,4.5521,0,0,0,.97852-.36328l-2.34961,8.51953a1.50088,1.50088,0,0,0-.07031.41016q0,.334.28711.334a.56148.56148,0,0,0,.44336-.27832,3.83561,3.83561,0,0,0,.42969-.94629l.14648-.44531Zm-1.47266-3.96387a.58261.58261,0,0,0-.39062-.14941,1.82328,1.82328,0,0,0-1.37646.77637,6.038,6.038,0,0,0-1.0459,1.91016,6.43876,6.43876,0,0,0-.39551,2.1123q0,1.043.52734,1.043a1.2612,1.2612,0,0,0,.81152-.48926,6.36251,6.36251,0,0,0,.91992-1.3125,9.69453,9.69453,0,0,0,.75244-1.7666l.44531-1.66406A.85849.85849,0,0,0,81.53857,164.10449Z"/><path class="cls-3" d="M89.26807,169.26367a.43432.43432,0,0,0,.14355.35742.57894.57894,0,0,0,.37793.11719.78768.78768,0,0,0,.55957-.25781,2.61189,2.61189,0,0,0,.50684-.94336l.16992-.46875h.22852l-.252.75586a2.14974,2.14974,0,0,1-.65625,1.05176,1.58751,1.58751,0,0,1-.99023.30762,1.10261,1.10261,0,0,1-.80566-.26367.98367.98367,0,0,1-.2666-.73242,2.60987,2.60987,0,0,1,.11133-.68555l1.27148-4.418H88.58838l.05859-.24023h1.08984l.52148-1.82227a3.46017,3.46017,0,0,0,1.07813-.16992l-.56836,1.99219H92.356l-.03516.24023H90.70361l-1.39453,4.91016A.962.962,0,0,0,89.26807,169.26367Z"/><path class="cls-3" d="M95.56152,165.00391a3.33871,3.33871,0,0,1,.791-1.01074,1.39273,1.39273,0,0,1,.876-.31348.70069.70069,0,0,1,.51855.19043.66231.66231,0,0,1,.19043.48926.84.84,0,0,1-.11719.43359.8928.8928,0,0,1-.31055.31641.78864.78864,0,0,1-.416.11719.50463.50463,0,0,1-.34277-.11426.4.4,0,0,1-.13184-.31934.78687.78687,0,0,1,.53906-.76758.18241.18241,0,0,0-.13477-.04687q-.42773,0-.91406.63281a8.49121,8.49121,0,0,0-.97852,1.76953,23.60091,23.60091,0,0,0-.938,2.63086l-.252,1.002h-1.043l1.43555-5.15039a1.78329,1.78329,0,0,0,.08789-.46875q0-.27539-.252-.27539a.621.621,0,0,0-.48926.28418,3.49184,3.49184,0,0,0-.44824.94043l-.1582.44531h-.22852l.30469-.873q.42188-1.23633,1.44727-1.23633a.61387.61387,0,0,1,.69189.69727,2.11881,2.11881,0,0,1-.041.4043q-.041.21094-.12891.57422l-.38721,1.52344A14.02476,14.02476,0,0,1,95.56152,165.00391Z"/><path class="cls-3" d="M104.41406,168.06836l-.29883.87891q-.43359,1.23633-1.45312,1.23633a.79582.79582,0,0,1-.36621-.085.55584.55584,0,0,1-.249-.24316.8522.8522,0,0,1-.07031-.36914,4.48589,4.48589,0,0,1,.16992-.98437l.38086-1.50586a12.13429,12.13429,0,0,1-.92871,1.86035,3.516,3.516,0,0,1-.90234,1.01367,1.685,1.685,0,0,1-.97559.31348q-1.01367,0-1.01367-.92578a2.83038,2.83038,0,0,1,.17578-.89062l1.16016-3.50391a1.61357,1.61357,0,0,0,.09375-.45117q0-.293-.28125-.293a.619.619,0,0,0-.46875.27246,3.28433,3.28433,0,0,0-.457.95215l-.1582.44531H98.543l.30469-.873q.42188-1.23633,1.44727-1.23633.84375,0,.84375.74414a3.32244,3.32244,0,0,1-.19336.93164l-1.14258,3.43359a1.94947,1.94947,0,0,0-.11719.59766q0,.41016.38086.41016a1.49,1.49,0,0,0,1.0166-.668,8.212,8.212,0,0,0,1.10156-1.86328,17.94529,17.94529,0,0,0,.95215-2.707l.18164-.71484a3.62139,3.62139,0,0,0,1.0957-.16406l-1.48828,5.31445a1.83938,1.83938,0,0,0-.08789.46875q0,.27539.25781.27539a.617.617,0,0,0,.4834-.28418,3.49184,3.49184,0,0,0,.44824-.94043l.1582-.44531Z"/><path class="cls-3" d="M109.19141,169.36035a3.23745,3.23745,0,0,1-.84082.59473,2.13976,2.13976,0,0,1-.95215.22852,1.5109,1.5109,0,0,1-1.16016-.45117,1.8536,1.8536,0,0,1-.42187-1.3125,5.55521,5.55521,0,0,1,.457-2.0918,5.20867,5.20867,0,0,1,1.2832-1.88379,2.693,2.693,0,0,1,1.88086-.76465,1.68545,1.68545,0,0,1,.65332.123,1.11517,1.11517,0,0,1,.47168.35449.87085.87085,0,0,1,.17578.542,1.05662,1.05662,0,0,1-.10547.457.92725.92725,0,0,1-.30176.36328.75032.75032,0,0,1-.44824.14063.477.477,0,0,1-.36621-.13477.47043.47043,0,0,1-.126-.334.78.78,0,0,1,.2666-.58887,1.21754,1.21754,0,0,1,.63574-.31348.924.924,0,0,0-.81445-.36914,1.6702,1.6702,0,0,0-1.19824.64746,4.94049,4.94049,0,0,0-.97266,1.71387,6.66808,6.66808,0,0,0-.37793,2.24414,1.40174,1.40174,0,0,0,.22266.87012.7444.7444,0,0,0,.62109.28418,2.27019,2.27019,0,0,0,1.79883-1.20117l.24023.09375A3.7256,3.7256,0,0,1,109.19141,169.36035Z"/><path class="cls-3" d="M114.52637,166a4.00269,4.00269,0,0,0,.69141-1.10156,2.44723,2.44723,0,0,1,.63281-.94336,1.19334,1.19334,0,0,1,.7207-.27539.70082.70082,0,0,1,.55664.19629.68407.68407,0,0,1,.15234.50684,1.10568,1.10568,0,0,1-.20215.52734.56845.56845,0,0,1-.49512.24609.42991.42991,0,0,1-.35449-.14062.53047.53047,0,0,1-.11426-.3457.83088.83088,0,0,1,.1084-.37793,1.31828,1.31828,0,0,1,.27246-.36035h-.02344a.75967.75967,0,0,0-.43945.16406,2.5459,2.5459,0,0,0-.55664.8584,5.46611,5.46611,0,0,1-.60645,1.04,1.52769,1.52769,0,0,1-.917.52148,2.698,2.698,0,0,1,1.251.32227.96072.96072,0,0,1,.48926.89063,1.50937,1.50937,0,0,1-.03516.31641l-.24023,1.20117a1.43093,1.43093,0,0,0-.0293.23438q0,.25781.26953.25781a.58205.58205,0,0,0,.45117-.27832,3.58314,3.58314,0,0,0,.43945-.94629l.14063-.44531h.22852l-.28711.87891q-.39844,1.23633-1.42969,1.23633a.79755.79755,0,0,1-.55664-.19629.74684.74684,0,0,1-.2168-.583,1.69843,1.69843,0,0,1,.041-.36328l.2168-1.03125a2.14424,2.14424,0,0,0,.05273-.44531.8525.8525,0,0,0-.1377-.501.92645.92645,0,0,0-.44531-.31348,3.20319,3.20319,0,0,0-.8291-.16406l-1.002,3.42773h-1.043l2.373-8.00391a1.26571,1.26571,0,0,0,.05859-.32812.37639.37639,0,0,0-.19336-.35156,1.33487,1.33487,0,0,0-.63281-.11133l.07031-.252a4.78322,4.78322,0,0,0,2.16211-.49219l-1.752,5.9707A1.74724,1.74724,0,0,0,114.52637,166Z"/><path class="cls-3" d="M129.03906,161.52344a.84.84,0,0,1-.126.44238.99294.99294,0,0,1-.33691.33691.83092.83092,0,0,1-.43945.12891.582.582,0,0,1-.43359-.17285.5898.5898,0,0,1-.16992-.43066.72863.72863,0,0,1,.01758-.16406.9178.9178,0,0,1,.24609-.48047.89448.89448,0,0,1,.46289-.26953,2.35693,2.35693,0,0,0-.7793-.10547,2.28209,2.28209,0,0,0-1.25977.38672,2.0061,2.0061,0,0,0-.56543.57422,3.96887,3.96887,0,0,0-.4043.82617q-.17285.47461-.37793,1.23633l-.00586.01172h2.28516a3.62139,3.62139,0,0,0,1.0957-.16406l-1.623,5.31445a1.69673,1.69673,0,0,0-.082.44531q0,.29883.27539.29883a.60326.60326,0,0,0,.46289-.27246,3.797,3.797,0,0,0,.47461-.95215l.16406-.44531h.22852l-.31055.87891a1.97149,1.97149,0,0,1-.627.94336,1.392,1.392,0,0,1-.84961.293q-.83789,0-.83789-.72656a2.98844,2.98844,0,0,1,.2168-.95508l1.3418-4.418h-2.2793l-2.2793,8.01563a3.66927,3.66927,0,0,0-1.07812.16992l2.32031-8.18555h-1.16016l.07617-.24023h1.14844a7.569,7.569,0,0,1,.52148-1.43262,2.95207,2.95207,0,0,1,.71484-.92871,3.37751,3.37751,0,0,1,1.16309-.64453,4.34982,4.34982,0,0,1,1.34473-.21094,2.42537,2.42537,0,0,1,.79395.126,1.14087,1.14087,0,0,1,.56543.39551A.69711.69711,0,0,1,129.03906,161.52344Z"/><path class="cls-3" d="M135.41016,168.94727q-.42187,1.23633-1.45312,1.23633a.81612.81612,0,0,1-.75586-.35156.73944.73944,0,0,1-.09375-.39258,3.11412,3.11412,0,0,1,.20508-.9375l1.13672-3.43359a1.899,1.899,0,0,0,.123-.5918q0-.416-.38672-.416a1.549,1.549,0,0,0-1.043.6709,8.314,8.314,0,0,0-1.13965,1.84277,17.16792,17.16792,0,0,0-.97559,2.60156l-.21094.83789h-1.043l1.43555-5.15039a1.65424,1.65424,0,0,0,.08789-.45117q0-.293-.26367-.293a.50834.50834,0,0,0-.3252.11426,1.23822,1.23822,0,0,0-.28711.37793,5.54126,5.54126,0,0,0-.31348.73242l-.1582.44531h-.22852l.30469-.873q.42188-1.23633,1.42383-1.23633a.62666.62666,0,0,1,.709.709,4.335,4.335,0,0,1-.16406.9668l-.416,1.64063a12.44966,12.44966,0,0,1,.99316-1.94531,3.62058,3.62058,0,0,1,.96387-1.04883,1.86287,1.86287,0,0,1,1.04883-.32227q.9668,0,.9668.90234a3.12149,3.12149,0,0,1-.17578.9082l-1.166,3.50391a1.51494,1.51494,0,0,0-.09375.45117.25639.25639,0,0,0,.28711.293.619.619,0,0,0,.46875-.27246,3.28433,3.28433,0,0,0,.457-.95215l.1582-.44531h.22266Z"/><path class="cls-3" d="M142.80664,168.06836l-.28125.87891a1.81608,1.81608,0,0,1-.583.95215,1.317,1.317,0,0,1-.80566.28418.76194.76194,0,0,1-.5625-.19336.75348.75348,0,0,1-.19336-.55664,4.18363,4.18363,0,0,1,.15234-.93164l.1582-.60352a5.74293,5.74293,0,0,1-1.14844,1.74609,1.79475,1.79475,0,0,1-1.23633.53906,1.12728,1.12728,0,0,1-.917-.39844,1.82658,1.82658,0,0,1-.33105-1.18945,5.3013,5.3013,0,0,1,.52148-2.15332,5.77459,5.77459,0,0,1,1.41211-1.96289,2.848,2.848,0,0,1,1.93945-.7998.7233.7233,0,0,1,.43945.15234.8285.8285,0,0,1,.293.42188l.59766-2.24414a1.22,1.22,0,0,0,.05273-.32227.38576.38576,0,0,0-.1875-.35449,1.28458,1.28458,0,0,0-.63281-.11426l.07617-.252a5.02749,5.02749,0,0,0,1.14258-.12891,4.5521,4.5521,0,0,0,.97852-.36328l-2.34961,8.51953a1.50088,1.50088,0,0,0-.07031.41016q0,.334.28711.334a.56.56,0,0,0,.44238-.27832,3.83009,3.83009,0,0,0,.43066-.94629l.14648-.44531Zm-1.47363-3.96387a.58018.58018,0,0,0-.38965-.14941,1.82412,1.82412,0,0,0-1.377.77637,6.038,6.038,0,0,0-1.0459,1.91016,6.43876,6.43876,0,0,0-.39551,2.1123q0,1.043.52734,1.043a1.2612,1.2612,0,0,0,.81152-.48926,6.36251,6.36251,0,0,0,.91992-1.3125,9.73009,9.73009,0,0,0,.75293-1.7666l.44531-1.66406A.85923.85923,0,0,0,141.333,164.10449Z"/><path class="cls-3" d="M147.53809,169.36035a3.23745,3.23745,0,0,1-.84082.59473,2.13976,2.13976,0,0,1-.95215.22852,1.536,1.536,0,0,1-1.16309-.43652,1.7444,1.7444,0,0,1-.41895-1.25684,4.95315,4.95315,0,0,1,.5332-2.05371,5.88647,5.88647,0,0,1,1.44434-1.95117,2.93007,2.93007,0,0,1,1.97754-.80566.97887.97887,0,0,1,.63867.20508.71216.71216,0,0,1,.252.58594,2.04392,2.04392,0,0,1-1.084,1.69336,10.69674,10.69674,0,0,1-2.502,1.20117,5.26814,5.26814,0,0,0-.13477,1.16016q0,1.1543.82617,1.1543a2.29837,2.29837,0,0,0,1.85156-1.20117l.19336.09375A3.7256,3.7256,0,0,1,147.53809,169.36035Zm-.54492-5.00391a4.8768,4.8768,0,0,0-.8877,1.19531,6.76182,6.76182,0,0,0-.62988,1.585,6.09145,6.09145,0,0,0,1.63477-.77344,2.41275,2.41275,0,0,0,.69141-.84082,2.382,2.382,0,0,0,.24609-1.0752,1.278,1.278,0,0,0-.04687-.43066.15451.15451,0,0,0-.14648-.1084A1.33839,1.33839,0,0,0,146.99316,164.35645Z"/><path class="cls-3" d="M152.83984,165.00391a3.3387,3.3387,0,0,1,.791-1.01074,1.39273,1.39273,0,0,1,.876-.31348.70069.70069,0,0,1,.51855.19043.66231.66231,0,0,1,.19043.48926.84.84,0,0,1-.11719.43359.8928.8928,0,0,1-.31055.31641.78864.78864,0,0,1-.416.11719.50463.50463,0,0,1-.34277-.11426.4.4,0,0,1-.13184-.31934.78687.78687,0,0,1,.53906-.76758.18241.18241,0,0,0-.13477-.04687q-.42773,0-.91406.63281a8.49121,8.49121,0,0,0-.97852,1.76953,23.7046,23.7046,0,0,0-.9375,2.63086l-.252,1.002h-1.043l1.43555-5.15039a1.78329,1.78329,0,0,0,.08789-.46875q0-.27539-.252-.27539a.621.621,0,0,0-.48926.28418,3.49184,3.49184,0,0,0-.44824.94043l-.1582.44531H150.124l.30469-.873q.42188-1.23633,1.44727-1.23633a.61373.61373,0,0,1,.69141.69727,2.11881,2.11881,0,0,1-.041.4043q-.041.21094-.12891.57422l-.38672,1.52344A13.96866,13.96866,0,0,1,152.83984,165.00391Z"/></svg>